<?xml version="1.0" encoding="UTF-8"?>
<!-- Generator: Adobe Illustrator 22.1.0, SVG Export Plug-In . SVG Version: 6.00 Build 0)  -->
<svg version="1.2" baseProfile="tiny" id="Layer_1" xmlns="http://www.w3.org/2000/svg" xmlns:xlink="http://www.w3.org/1999/xlink" x="0px" y="0px" viewBox="0 0 248.9 62.1" xml:space="preserve">
<g>
	<g>
		<path fill="#FFFFFF" d="M35.1,62.1c-2,0-4-0.6-5.5-1.8l-10.9-8.5c-2.1,2.3-4.8,3.6-7.9,3.6c-6.2,0-8.8-3.2-9.7-5.2    C-1.4,45.3,0.3,38,6.4,27.2c3.9-6.8,8.1-12.6,8.6-13.3c0.2-0.3,1.3-1.9,3.1-3.7c1.9-1.8,10.5-7.9,11.4-8.6C31.1,0.6,33,0,35,0    s3.9,0.6,5.4,1.7c2.4,1.7,10.4,7.6,11.4,8.6c1,1,3,3.4,3,3.5c0.2,0.3,4.7,6.2,8.7,13.4c6.1,10.8,7.8,18.2,5.4,23.1    c-1,1.9-3.5,5.2-9.7,5.2c-2.9,0-5.6-1.1-7.6-3.3c0,0-11.2,8.3-11.2,8.3C38.9,61.5,37,62.1,35.1,62.1z M22.5,42.8    c0.2,0.6,0.7,1.6,1,1.9l11.3,8.8c0,0,0,0,0,0c0,0,0.1,0,0.2,0c0.1,0,0.2,0,0.2,0l11.1-8.3c0.5-0.3,1.1-1.5,1.1-2.1v-0.3l-7.1,5.3    c-1.5,1.1-3.3,1.7-5.3,1.7l-0.1,0c-2,0-3.9-0.6-5.4-1.7L22.5,42.8z M56.2,43.1c0,0.9,0.5,1.8,1.5,2.8c0.8,0.8,1.4,0.8,1.6,0.8    c1.6,0,2-0.4,2-0.4c0.1-0.2,0.2-0.4,0.2-0.9c0.1-2.7-1.8-7.7-5.2-13.8L56.2,43.1z M13.9,31.6C9.6,39.3,8,44.7,8.8,46.4    c0,0,0.4,0.4,2,0.4c0.5,0,0.9-0.1,1.5-0.7c0.8-0.9,1.6-2,1.6-3l0-0.2h0C13.9,42.2,13.9,37,13.9,31.6z M34.8,41.1c0,0,0.1,0,0.2,0    c0.2,0,0.3,0,0.3,0l11.1-8.3c0.5-0.3,1.1-1.5,1.1-2.1v-1.2l-6.4,4.8c-1.6,1.2-3.7,1.9-5.9,1.9c-0.1,0-0.2,0-0.2,0    c-2.2,0-4.3-0.7-6-1.9l-6.4-4.8v1.2c0,0.6,0.6,1.8,1.1,2.1L34.8,41.1C34.7,41.1,34.8,41.1,34.8,41.1z M34.1,27.3    c0.2,0.1,0.5,0.2,0.9,0.2s0.8-0.1,0.9-0.2l2.9-2.2l-3.6-2.7c0,0,0,0,0,0c0,0-0.1,0-0.2,0c-0.2,0-0.3,0-0.3,0l-3.6,2.7L34.1,27.3z     M23.9,19.8l5.7-4.3c1.5-1.1,3.4-1.7,5.4-1.7c2,0,3.9,0.6,5.4,1.7l5.7,4.3l1.3-1c-0.2-0.6-0.6-1.5-1-1.8L35.2,8.6c0,0,0,0,0,0    c0,0-0.1,0-0.2,0c-0.2,0-0.3,0-0.3,0L23.6,17c-0.4,0.3-0.9,1.2-1,1.8L23.9,19.8z"/>
		<g>
			<g>
				<g>
					<g>
						<g>
							<path fill="#FFFFFF" d="M83.7,43c2.1,1.3,4.5,2,7.2,2c1.4,0,2.9-0.2,4.4-0.7c1.5-0.5,2.8-1.2,3.8-2.2c2-2.1,3.4-4.8,3.9-8         c0.6-3.2,0.2-5.7-1-7.8c0-0.1-0.1-0.2-0.1-0.2c-1.3-2.1-3.3-3.1-6-3.1c-1.5,0-2.8,0.3-3.9,0.8c-0.8,0.4-1.4,0.8-2,1.3         c-0.4,0.4-0.8,0.7-1.1,1.1l1.1-6.4c0.1-0.4,0.1-0.8-0.1-1.1c-0.1-0.3-0.2-0.6-0.4-0.8C89,17.4,88.4,17,87.6,17l-2.9,0         l-3.2,18.3c-0.6,3.1-0.2,5.5,1.2,6.9C83,42.5,83.3,42.8,83.7,43z M89.6,29.3c1-1.1,2.3-1.6,3.9-1.6c1.5,0,2.5,0.6,3.2,1.7         c0.1,0.1,0.1,0.2,0.2,0.3c0.5,1,0.6,2.4,0.3,4.2c-0.4,2.1-1.1,3.7-2.1,4.8c-1,1.1-2.4,1.7-3.9,1.7c-1.1,0-2-0.3-2.7-0.9         c-0.2-0.2-0.4-0.5-0.6-0.7c-0.6-1-0.7-2.6-0.3-4.8C87.9,31.9,88.6,30.4,89.6,29.3z"/>
							<path fill="#FFFFFF" d="M111.2,39.1c-0.7-0.8-0.9-2.3-0.6-3.6l14.6,0c0.1,0,0.1-0.3,0.2-0.6c0,0,0-0.2,0-0.3         c0-0.2,0.1-0.3,0.1-0.6c0.5-3.1,0.3-5.6-0.8-7.5c-0.1-0.3-0.3-0.5-0.5-0.7c-1.5-1.9-4-2.9-7.4-2.9c-3.2,0-5.9,1-8,2.9         c-2.1,1.9-3.4,4.6-4,8c-0.6,3.5-0.2,6.3,1.3,8.2c0.1,0.1,0.2,0.2,0.3,0.3c1.5,1.7,3.7,2.6,6.7,2.6c2.6,0,5-0.6,6.9-1.8         c1.6-1,2.9-2.3,3.9-4c0.2-0.3,0.4-1,0.5-1l-4.2,0c-0.7,0-1.2,0.1-1.6,0.3c-0.4,0.3-0.7,0.4-0.7,0.6c-0.2,0.2-0.4,0.3-0.5,0.4         c-0.2,0.1-0.3,0.2-0.5,0.3c-0.7,0.4-1.6,0.6-2.5,0.6c-1.2,0-2.1-0.3-2.7-0.9C111.4,39.4,111.3,39.3,111.2,39.1z M113,28.8         c0.9-0.7,2-1.2,3.2-1.2c1.4,0,2.3,0.3,2.9,1.1c0.2,0.2,0.3,0.5,0.4,0.8c0.3,0.6,0.3,1.2,0.2,2.6l-7.6,0l-1,0         C111.5,30.7,112.1,29.5,113,28.8z"/>
							<path fill="#FFFFFF" d="M133.6,39.2c-0.6-0.8-0.9-2.3-0.6-3.6l14.6,0c0.1,0,0.1-0.3,0.2-0.6c0,0,0-0.2,0-0.3         c0-0.2,0.1-0.3,0.1-0.6c0.5-3.1,0.3-5.6-0.8-7.5c-0.1-0.3-0.3-0.5-0.5-0.7c-1.5-1.9-4-2.9-7.4-2.9c-3.2,0-5.9,1-8,2.9         c-2.1,1.9-3.4,4.6-4,8c-0.6,3.5-0.2,6.3,1.3,8.2c0.1,0.1,0.2,0.2,0.3,0.3c1.5,1.7,3.7,2.6,6.7,2.6c2.7,0,5-0.6,6.9-1.8         c1.6-1,2.9-2.3,3.9-4c0.2-0.3,0.4-1,0.5-1l-4.2,0c-0.7,0-1.2,0.1-1.6,0.3c-0.4,0.3-0.7,0.4-0.7,0.6c-0.2,0.2-0.4,0.3-0.5,0.4         c-0.2,0.1-0.3,0.2-0.5,0.3c-0.7,0.4-1.6,0.6-2.5,0.6c-1.2,0-2.1-0.3-2.7-0.9C133.9,39.4,133.7,39.3,133.6,39.2z M135.5,28.8         c0.9-0.7,2-1.2,3.2-1.2c1.4,0,2.3,0.3,2.9,1.1c0.2,0.2,0.3,0.5,0.4,0.8c0.3,0.6,0.3,1.2,0.2,2.6l-7.6,0l-1,0         C133.9,30.7,134.5,29.6,135.5,28.8z"/>
							<path fill="#FFFFFF" d="M158.3,44.7l0.5-3.2l0.2-1.1l-1.8,0c-0.3,0-0.5,0.1-0.7,0c-0.6-0.2-0.8-0.6-0.7-1.2l2.1-11.8l0.6,0         c0.8,0,1.5-0.2,2.2-0.7c0.7-0.5,1-1.1,1.2-1.9l0-0.2l0.2-1.2l-2.6,0l-0.9,0l0.6-3.4c0.1-0.4,0-0.7-0.1-1.1         c-0.1-0.3-0.2-0.6-0.4-0.8c-0.5-0.5-1.1-0.9-1.8-0.9l-3,0l-4.1,23.5c-0.3,1.6,0,2.7,0.8,3.4c0.4,0.3,1,0.6,1.8,0.6         C154.4,44.7,156.5,44.7,158.3,44.7z"/>
							<path fill="#FFFFFF" d="M168,33.6c0.3-1.6,0.9-2.6,1.8-3.3c0.9-0.7,2.2-0.9,3.8-0.9l1.9,0l0.8-4.9l0.2-1.3         c-0.1,0-0.3,0-0.4,0c-0.2,0-0.3,0-0.4,0c-1.5,0-3,0.3-4.5,0.7c-1.5,0.4-2.9,1-4.1,1.8c-1.3,0.9-2.4,2-3.2,3.4         c-0.9,1.4-1.5,3-1.9,5.1l-1.8,10.2l0.9,0l5,0L168,33.6z"/>
							<path fill="#FFFFFF" d="M176.7,43.5c1.4,1,3,1.5,5.1,1.5c1,0,2.2-0.1,3.5-0.2c1.3-0.1,2.7-0.5,4-1.1c1.2-0.5,2.3-1.4,3.4-2.6         c1-1.2,1.7-2.9,2.1-5L196,29c0.2-1.1,0.1-2.1-0.3-2.9c-0.3-0.6-0.7-1.1-1.4-1.6c-1.4-1-3.7-1.5-6.8-1.5         c-2.8,0-5.1,0.5-6.8,1.7c-1.5,1.1-2.6,2.6-3.1,4l1.1,0l4.5,0c0.4-0.7,0.9-0.9,1.6-1.1c0.7-0.2,1.4-0.3,2.2-0.3         c0.7,0,1.5,0.1,2.3,0.4c0.7,0.2,1,0.6,1.1,1.2c0,0.1,0,0.3,0,0.4c-0.2,1.1-1.6,1.8-4.1,2.1c-0.5,0.1-1,0.1-1.4,0.2         c-0.4,0.1-0.7,0.1-1,0.1c-2.2,0.3-4.1,1-5.6,1.9c-1.6,0.9-2.5,2.5-2.9,4.8c-0.4,2.2,0,3.8,1,4.8         C176.5,43.3,176.6,43.4,176.7,43.5z M180.8,38.2c0.1-0.6,0.4-1.2,0.9-1.8c0.5-0.4,1.3-0.8,2.4-1l2-0.4c1.5-0.3,2.6-0.7,3.5-1         l-0.2,1.4l-0.1,0.6c-0.3,1.5-0.9,2.7-2,3.5c-1,0.8-2.4,1.3-3.9,1.3c-0.8,0-1.3-0.1-1.8-0.4c-0.1-0.1-0.2-0.1-0.3-0.2         C180.8,39.6,180.7,39,180.8,38.2z"/>
							<path fill="#FFFFFF" d="M205,45.1c2.7,0,5-0.6,6.9-1.8c1.6-1,2.9-2.3,3.9-4c0.2-0.3,0.4-1,0.5-1l-4.2,0         c-0.7,0-1.2,0.1-1.6,0.3c-0.4,0.3-0.6,0.4-0.8,0.6c-0.2,0.2-0.4,0.3-0.5,0.4c-0.2,0.1-0.3,0.2-0.5,0.3         c-0.7,0.4-1.6,0.6-2.5,0.6c-1.2,0-2.1-0.3-2.7-0.9c-0.1-0.1-0.2-0.2-0.3-0.4c-0.8-1-1-2.7-0.6-5.2c0.4-2.4,1.2-4.2,2.4-5.3         c0.9-0.7,2-1.1,3.2-1.1c1.4,0,2.3,0.4,2.9,1.1c0.2,0.2,0.3,0.5,0.5,0.8c0.1,0.1,0.1,0.5,0.2,0.5l0.2,0l5.7,0         c-0.1-1.4-0.5-2.4-1.1-3.5c-0.1-0.2-0.3-0.5-0.4-0.7c-1.5-1.9-4-2.9-7.4-2.9c-3.2,0-5.9,1-8,2.9c-2.1,1.9-3.4,4.6-4,8         c-0.6,3.5-0.2,6.3,1.3,8.2c0.1,0.1,0.2,0.2,0.3,0.4C199.8,44.2,202,45.1,205,45.1z"/>
							<path fill="#FFFFFF" d="M232,31.5l8.3-7.2l1.2-1.1l-7.1,0l-7.5,6.9l-1.1,1l1.4-7.8l0.6-3.6c0.1-0.4,0-0.7-0.1-1.1         c-0.1-0.3-0.2-0.6-0.5-0.9c-0.5-0.5-1.1-0.9-1.9-0.9l-3,0l-4.8,27.3l0.9,0l5,0l0.9-5l0.5-2.9c0.1-0.4,0.4-0.7,1.1-0.9         c0.6-0.2,1.1,0.3,1.6,1.3c0.1,0.2,0.2,0.2,0.3,0.5l2.9,7.1l0.3,0l6.8,0L232,31.5z"/>
						</g>
					</g>
				</g>
			</g>
		</g>
		<path fill="#FFFFFF" d="M7.1,47.2c0.2,0.4,0.7,1.5,3.8,1.5c1.2,0,2.1-0.5,3-1.4c0.9-1,2.1-2.6,2.1-4.3c0.1-0.6,0-18.5,0-18.5    C10.3,33.2,5.2,43.4,7.1,47.2z"/>
		<path fill="#FFFFFF" d="M37.1,29l5.1-3.7l-5.8-4.3c-0.7-0.5-2.1-0.5-2.8,0l-5.8,4.3l5.1,3.7C34,29.8,36,29.8,37.1,29z"/>
		<path fill="#FFFFFF" d="M35,15.9c1.5,0,3,0.4,4.2,1.3l6.9,5.1l0,0l-6.9-5.1C38,16.3,36.5,15.9,35,15.9z"/>
		<path fill="#FFFFFF" d="M23.9,22.3l-3.4-2.5v-0.6c0-1.2,0.9-3,1.9-3.7l11.2-8.4c0.4-0.3,0.9-0.4,1.4-0.4c-0.5,0-1.1,0.1-1.4,0.4    l-11.2,8.4c-1,0.7-1.9,2.5-1.9,3.7v0.6L23.9,22.3L23.9,22.3z"/>
		<path fill="#FFFFFF" d="M35.1,47.7v7.7c0.5,0,1-0.1,1.4-0.4l11.2-8.3c1-0.7,1.9-2.5,1.9-3.7v-4.2l-10.3,7.6    C38,47.2,36.5,47.7,35.1,47.7z"/>
		<path fill="#FFFFFF" d="M54.1,24.4c0,0,0,17.9,0,18.6c0,1.8,1.1,3.2,2.1,4.2c0.8,0.8,1.8,1.4,3,1.4c3,0,3.6-1.1,3.8-1.5    c0.2-0.5,0.4-1,0.4-1.7C63.5,40.9,59,32.1,54.1,24.4L54.1,24.4z"/>
		<path fill="#FFFFFF" d="M35.1,34.2v8.9c0.5,0,1-0.1,1.4-0.4l11.2-8.3c1-0.7,1.9-2.5,1.9-3.7v-1.2v-3.9l-9.6,7.1    C38.5,33.6,36.8,34.1,35.1,34.2z"/>
		<path fill="#F5B63E" d="M22.4,15.5c-1,0.7-1.9,2.5-1.9,3.7v0.6l3.4,2.5l6.9-5.1c1.2-0.9,2.7-1.3,4.2-1.3c1.5,0,3,0.4,4.2,1.3    l6.9,5.1l3.4-2.5v-0.6c0-1.2-0.9-3-1.9-3.7L36.4,7.1c-0.4-0.3-0.9-0.4-1.4-0.4c-0.5,0-1.1,0.1-1.4,0.4L22.4,15.5z"/>
		<path fill="#F5B63E" d="M34.9,34.2c-1.8,0-3.4-0.5-4.8-1.5l-9.6-7.1v3.9v1.2c0,1.2,0.9,3,1.9,3.7l11.2,8.3    c0.4,0.3,0.9,0.4,1.5,0.4v-8.9C35,34.2,35,34.2,34.9,34.2z"/>
		<path fill="#F5B63E" d="M35,47.7c-1.5,0-3-0.4-4.2-1.3c0,0,0,0,0,0l-10.3-7.6v3.7c0,1.2,0.9,3.1,1.9,3.8L33.7,55    c0.4,0.3,0.9,0.4,1.4,0.4L35,47.7C35,47.7,35,47.7,35,47.7z"/>
		<path d="M53.2,15.1c0,0-1.9-2.4-2.9-3.3c-1-1-11.2-8.4-11.2-8.4c-2.3-1.8-6-1.7-8.4,0c0,0-9.3,6.6-11.2,8.4    c-1.9,1.8-2.9,3.3-2.9,3.3c-0.2,0.2-4.5,6.1-8.5,13C2.6,38.2,0.9,45.1,3,49.3c0.9,1.8,3,4,7.9,4c2.5,0,4.8-1,6.5-3    c0.4-0.5,0.7-1,1-1.6c0.4,0.5,0.8,0.9,1.2,1.2l11.3,8.7c1.2,0.9,2.7,1.4,4.2,1.4c1.5,0,2.9-0.4,4.1-1.3l11.2-8.3    c0.5-0.4,1-0.8,1.4-1.4c0.3,0.4,0.6,0.9,0.9,1.2c1.7,2,3.9,3,6.5,3c4.9,0,7-2.2,7.9-4c2.1-4.2,0.4-11.1-5.3-21.1    C57.8,21.2,53.4,15.4,53.2,15.1z M16,43c0,1.7-1.2,3.3-2.1,4.3c-0.8,1-1.8,1.4-3,1.4c-3,0-3.6-1.1-3.8-1.5    c-1.9-3.8,3.2-14,8.8-22.8C15.9,24.4,16,42.4,16,43z M20.5,19.2c0-1.2,0.9-3,1.9-3.7l11.2-8.4c0.4-0.3,0.9-0.4,1.4-0.4    c0.5,0,1.1,0.1,1.4,0.4l11.2,8.4c1,0.7,1.9,2.5,1.9,3.7v0.6l-3.4,2.5l0,0l-6.9-5.1c-1.2-0.9-2.7-1.3-4.2-1.3c-1.5,0-3,0.4-4.2,1.3    l-6.9,5.1l0,0l-3.4-2.5V19.2z M33.6,20.9c0.7-0.5,2.1-0.5,2.8,0l5.8,4.3L37.1,29c-1.1,0.8-3.1,0.8-4.3,0l-5.1-3.7L33.6,20.9z     M49.5,43c0,1.2-0.9,3-1.9,3.7L36.4,55c-0.3,0.3-0.9,0.4-1.4,0.4c-0.5,0-1.1-0.1-1.4-0.4l-11.3-8.7c-1-0.7-1.9-2.6-1.9-3.8v-3.7    l10.3,7.6c0,0,0,0,0,0c1.2,0.9,2.7,1.3,4.2,1.3c0,0,0,0,0.1,0c1.5,0,3-0.4,4.1-1.3l10.3-7.6V43z M49.5,29.5v1.2    c0,1.2-0.9,3-1.9,3.7l-11.2,8.3c-0.3,0.3-0.9,0.4-1.4,0.4c-0.6,0-1.1-0.1-1.5-0.4l-11.2-8.3c-1-0.7-1.9-2.5-1.9-3.7v-1.2v-3.9    l9.6,7.1c1.4,1,3.1,1.5,4.8,1.5c0,0,0.1,0,0.1,0c1.7,0,3.5-0.5,4.8-1.5l9.6-7.1V29.5z M62.9,47.2c-0.2,0.4-0.7,1.5-3.8,1.5    c-1.2,0-2.2-0.6-3-1.4c-1-1-2.1-2.4-2.1-4.2c0-0.7,0-18.6,0-18.6v0c4.9,7.6,9.4,16.5,9.2,21.1C63.2,46.2,63.1,46.7,62.9,47.2z"/>
	</g>
	<g>
		<path fill="#FFFFFF" d="M248.9,23.3c0,1.5-1.2,2.6-2.7,2.6c-1.5,0-2.7-1.2-2.7-2.6c0-1.4,1.2-2.6,2.7-2.6    C247.8,20.7,248.9,21.9,248.9,23.3z M244.3,23.3c0,1.2,0.9,2.1,2,2.1c1.1,0,2-0.9,2-2.1c0-1.2-0.8-2.1-2-2.1    C245.1,21.2,244.3,22.2,244.3,23.3z M245.8,24.7h-0.6v-2.6c0.2,0,0.6-0.1,1-0.1c0.5,0,0.7,0.1,0.9,0.2c0.1,0.1,0.3,0.3,0.3,0.6    c0,0.3-0.2,0.5-0.5,0.6v0c0.3,0.1,0.4,0.3,0.5,0.6c0.1,0.4,0.1,0.6,0.2,0.6h-0.6c-0.1-0.1-0.1-0.3-0.2-0.6c0-0.3-0.2-0.4-0.5-0.4    h-0.3V24.7z M245.9,23.2h0.3c0.3,0,0.6-0.1,0.6-0.4c0-0.2-0.2-0.4-0.6-0.4c-0.2,0-0.3,0-0.3,0V23.2z"/>
	</g>
</g>
<div xmlns="" id="saka-gui-root"><div><div><style/></div></div></div></svg>